HIERARCHY
ROOT joint_Root
{
	OFFSET 0.0 0.0 0.0
	CHANNELS 6 Xposition Yposition Zposition Zrotation Xrotation Yrotation 
	JOINT Hips
	{
		OFFSET 4.5925 91.4895 -427.239
		CHANNELS 6 Xposition Yposition Zposition Zrotation Xrotation Yrotation 
		JOINT Spine
		{
			OFFSET 15.7357 0.0 0.0
			CHANNELS 6 Xposition Yposition Zposition Zrotation Xrotation Yrotation 
			JOINT Chest
			{
				OFFSET 8.98455 -0.406207 0.0
				CHANNELS 6 Xposition Yposition Zposition Zrotation Xrotation Yrotation 
				JOINT Neck
				{
					OFFSET 16.3773 0.0 0.0
					CHANNELS 6 Xposition Yposition Zposition Zrotation Xrotation Yrotation 
					JOINT Head
					{
						OFFSET 6.45672 0.0 0.0
						CHANNELS 6 Xposition Yposition Zposition Zrotation Xrotation Yrotation 
						End Site
						{
							OFFSET 0.0 0.0 0.0
						}
					}
				}
				JOINT Shoulder_L
				{
					OFFSET 12.9942 -0.242716 4.98039
					CHANNELS 6 Xposition Yposition Zposition Zrotation Xrotation Yrotation 
					JOINT UpperArm_L
					{
						OFFSET 5.34809 0.0 0.0
						CHANNELS 6 Xposition Yposition Zposition Zrotation Xrotation Yrotation 
						JOINT LowerArm_L
						{
							OFFSET 24.3286 1.87007e-05 0.0
							CHANNELS 6 Xposition Yposition Zposition Zrotation Xrotation Yrotation 
							JOINT Hand_L
							{
								OFFSET 22.2916 0.0 0.0
								CHANNELS 6 Xposition Yposition Zposition Zrotation Xrotation Yrotation 
								End Site
								{
									OFFSET 0.0 0.0 0.0
								}
							}
						}
					}
				}
				JOINT Shoulder_R
				{
					OFFSET 12.9945 -0.242716 -4.98039
					CHANNELS 6 Xposition Yposition Zposition Zrotation Xrotation Yrotation 
					JOINT UpperArm_R
					{
						OFFSET -5.34813 0.0 0.0
						CHANNELS 6 Xposition Yposition Zposition Zrotation Xrotation Yrotation 
						JOINT LowerArm_R
						{
							OFFSET -24.3289 0.000322201 0.0
							CHANNELS 6 Xposition Yposition Zposition Zrotation Xrotation Yrotation 
							JOINT Hand_R
							{
								OFFSET -22.2915 -0.000108084 0.0
								CHANNELS 6 Xposition Yposition Zposition Zrotation Xrotation Yrotation 
								End Site
								{
									OFFSET 0.0 0.0 0.0
								}
							}
						}
					}
				}
			}
		}
		JOINT UpperLeg_L
		{
			OFFSET -2.19248 -6.46944 0.0
			CHANNELS 6 Xposition Yposition Zposition Zrotation Xrotation Yrotation 
			JOINT LowerLeg_L
			{
				OFFSET 39.0811 0.0 -1.23785e-05
				CHANNELS 6 Xposition Yposition Zposition Zrotation Xrotation Yrotation 
				JOINT Foot_L
				{
					OFFSET 40.9854 0.0 -1.26872e-05
					CHANNELS 6 Xposition Yposition Zposition Zrotation Xrotation Yrotation 
					JOINT Toes_L
					{
						OFFSET 11.7543 0.0 0.0
						CHANNELS 6 Xposition Yposition Zposition Zrotation Xrotation Yrotation 
						End Site
						{
							OFFSET 0.0 0.0 0.0
						}
					}
				}
			}
		}
		JOINT UpperLeg_R
		{
			OFFSET -2.19251 6.46944 0.0
			CHANNELS 6 Xposition Yposition Zposition Zrotation Xrotation Yrotation 
			JOINT LowerLeg_R
			{
				OFFSET -39.0811 -0.00228153 -0.0401928
				CHANNELS 6 Xposition Yposition Zposition Zrotation Xrotation Yrotation 
				JOINT Foot_R
				{
					OFFSET -40.9854 0.0 0.0
					CHANNELS 6 Xposition Yposition Zposition Zrotation Xrotation Yrotation 
					JOINT Toes_R
					{
						OFFSET -11.7543 0.0 0.0
						CHANNELS 6 Xposition Yposition Zposition Zrotation Xrotation Yrotation 
						End Site
						{
							OFFSET 0.0 0.0 0.0
						}
					}
				}
			}
		}
	}
}
MOTION
Frames:	7
Frame Time:	0.0333333
0.000000 0.000000 0.000000 0.000000 0.000000 -0.000000 -1.693690 91.107600 -7.682520 88.666500 -2.070270 7.048030 15.735700 0.000005 -0.000001 87.765900 75.712900 -88.263700 8.984550 -0.406207 -0.000000 20.784500 -1.143330 -0.789451 16.377300 -0.000001 -0.000001 13.609200 -2.502740 2.033160 6.456720 -0.000001 -0.000000 -15.918700 -2.472530 2.662500 12.994200 -0.242716 4.980390 -89.212000 -2.721470 -73.844700 5.348090 -0.000007 -0.000001 -78.148900 -10.470700 -82.507500 24.328600 0.000019 0.000005 41.002800 -10.119900 -101.426000 22.291600 -0.000001 0.000005 14.414500 5.074280 5.697060 12.994500 -0.242716 -4.980390 90.208300 -0.991243 -78.128700 -5.348130 -0.000001 -0.000004 -73.528200 -9.992920 -78.881200 -24.328900 0.000322 -0.000009 21.347400 -7.554280 -108.591000 -22.291500 -0.000108 -0.000004 23.796400 5.138460 4.217870 -2.192480 -6.469440 -0.000000 -175.145000 -11.986800 -9.664830 39.081100 -0.000007 -0.000012 -0.096409 0.158816 31.260000 40.985400 -0.000006 -0.000013 0.322538 5.663650 -64.482500 11.754300 -0.000000 0.000003 -0.000243 -0.002184 -16.659500 -2.192510 6.469440 -0.000001 178.830000 21.459800 171.771000 -39.081100 -0.002282 -0.040193 -0.140553 0.250153 29.902100 -40.985400 0.000008 0.000006 4.851810 14.043000 -65.220000 -11.754300 -0.000006 -0.000006 -0.001766 -0.025753 -17.620300
0.000000 0.000000 0.000000 0.000000 0.000000 -0.000000 -1.677410 91.109300 -7.716170 88.666500 -2.068550 7.029030 15.735700 0.000005 -0.000001 87.785000 75.713000 -88.280800 8.984550 -0.406207 -0.000000 20.784500 -1.133780 -0.787109 16.377300 -0.000001 -0.000001 13.550800 -2.509810 2.029630 6.456720 -0.000001 -0.000000 -15.858200 -2.472050 2.653620 12.994200 -0.242716 4.980390 -89.215000 -2.703780 -73.803900 5.348090 -0.000007 -0.000001 -78.254000 -10.381800 -82.573000 24.328600 0.000019 0.000005 41.003300 -10.102800 -101.407000 22.291600 -0.000001 0.000005 14.416200 5.072420 5.738790 12.994500 -0.242716 -4.980390 90.210200 -0.998083 -78.106500 -5.348130 -0.000001 -0.000004 -73.544000 -9.951200 -78.855600 -24.328900 0.000322 -0.000009 21.361400 -7.519870 -108.501000 -22.291500 -0.000108 -0.000004 23.823900 5.137460 4.241380 -2.192480 -6.469440 -0.000000 -175.173000 -11.997600 -9.709370 39.081100 -0.000007 -0.000012 -0.092749 0.152827 31.253300 40.985400 -0.000006 -0.000013 0.343345 5.664070 -64.455200 11.754300 -0.000000 0.000003 -0.000219 -0.002002 -16.652900 -2.192510 6.469440 -0.000001 178.837000 21.422500 171.726000 -39.081100 -0.002282 -0.040193 -0.139255 0.248002 29.891300 -40.985400 0.000008 0.000006 4.834590 14.036400 -65.182800 -11.754300 -0.000006 -0.000006 -0.001903 -0.027491 -17.691000
0.000000 0.000000 0.000000 0.000000 0.000000 -0.000000 -1.668840 91.107700 -7.743980 88.662100 -2.079090 7.067960 15.735700 0.000005 -0.000001 87.779700 75.699300 -88.275200 8.984550 -0.406207 -0.000000 20.811900 -1.137440 -0.785651 16.377300 -0.000001 -0.000001 13.603300 -2.511660 2.011530 6.456720 -0.000001 -0.000000 -15.822900 -2.469620 2.623410 12.994200 -0.242716 4.980390 -89.211100 -2.715140 -73.791000 5.348090 -0.000007 -0.000001 -78.306400 -10.344000 -82.570200 24.328600 0.000019 0.000005 40.917500 -10.075900 -101.412000 22.291600 -0.000001 0.000005 14.430600 5.073510 5.714190 12.994500 -0.242716 -4.980390 90.207500 -0.988102 -78.136600 -5.348130 -0.000001 -0.000004 -73.499400 -9.906100 -78.863800 -24.328900 0.000322 -0.000009 21.512700 -7.490870 -108.301000 -22.291500 -0.000108 -0.000004 23.834100 5.136420 4.265970 -2.192480 -6.469440 -0.000000 -175.170000 -11.992900 -9.692090 39.081100 -0.000007 -0.000012 -0.091128 0.150098 31.263000 40.985400 -0.000006 -0.000013 0.350781 5.661820 -64.444100 11.754300 -0.000000 0.000003 -0.000233 -0.002104 -16.656600 -2.192510 6.469440 -0.000001 178.827000 21.418600 171.747000 -39.081100 -0.002282 -0.040193 -0.140076 0.249393 29.895000 -40.985400 0.000008 0.000006 4.826900 14.023900 -65.163300 -11.754300 -0.000006 -0.000006 -0.001835 -0.026627 -17.655800
0.000000 0.000000 0.000000 0.000000 0.000000 -0.000000 -1.661080 91.104600 -7.774590 88.647000 -2.053560 7.086900 15.735700 0.000005 -0.000001 87.785600 75.682600 -88.274000 8.984550 -0.406207 -0.000000 20.845500 -1.135120 -0.771648 16.377300 -0.000001 -0.000001 13.704100 -2.514920 2.008940 6.456720 -0.000001 -0.000000 -15.846500 -2.491900 2.593700 12.994200 -0.242716 4.980390 -89.211800 -2.708230 -73.766700 5.348090 -0.000007 -0.000001 -78.342000 -10.285500 -82.612700 24.328600 0.000019 0.000005 40.954300 -10.059400 -101.379000 22.291600 -0.000001 0.000005 14.366100 5.073890 5.705630 12.994500 -0.242716 -4.980390 90.212600 -1.011400 -78.128300 -5.348130 -0.000001 -0.000004 -73.508000 -9.887360 -78.877800 -24.328900 0.000322 -0.000009 21.619200 -7.454140 -108.126000 -22.291500 -0.000108 -0.000004 23.784800 5.136890 4.254980 -2.192480 -6.469440 -0.000000 -175.160000 -12.008700 -9.710600 39.081100 -0.000007 -0.000012 -0.093062 0.153142 31.286800 40.985400 -0.000006 -0.000013 0.365331 5.678480 -64.432200 11.754300 -0.000000 0.000003 -0.000229 -0.002076 -16.655500 -2.192510 6.469440 -0.000001 178.839000 21.416800 171.740000 -39.081100 -0.002282 -0.040193 -0.139310 0.248000 29.901100 -40.985400 0.000008 0.000006 4.822210 14.012100 -65.142900 -11.754300 -0.000006 -0.000006 -0.001842 -0.026722 -17.659700
0.000000 0.000000 0.000000 0.000000 0.000000 -0.000000 -1.654110 91.099500 -7.800070 88.642600 -2.071870 7.112200 15.735700 0.000005 -0.000001 87.817700 75.663400 -88.309300 8.984550 -0.406207 -0.000000 20.884400 -1.121330 -0.780219 16.377300 -0.000001 -0.000001 13.827500 -2.528220 1.985270 6.456720 -0.000001 -0.000000 -15.851200 -2.535310 2.582840 12.994200 -0.242716 4.980390 -89.213200 -2.695470 -73.720000 5.348090 -0.000007 -0.000001 -78.334300 -10.273400 -82.625900 24.328600 0.000019 0.000005 40.839200 -10.022600 -101.384000 22.291600 -0.000001 0.000005 14.424000 5.073670 5.710710 12.994500 -0.242716 -4.980390 90.209400 -0.995350 -78.120700 -5.348130 -0.000001 -0.000004 -73.450400 -9.886140 -78.917100 -24.328900 0.000322 -0.000009 21.686900 -7.426600 -108.005000 -22.291500 -0.000108 -0.000004 23.754100 5.133430 4.336620 -2.192480 -6.469440 -0.000000 -175.157000 -11.994300 -9.715410 39.081100 -0.000007 -0.000012 -0.091810 0.150919 31.314000 40.985400 -0.000006 -0.000013 0.365027 5.660290 -64.429200 11.754300 -0.000000 0.000003 -0.000237 -0.002135 -16.657700 -2.192510 6.469440 -0.000001 178.838000 21.399600 171.736000 -39.081100 -0.002282 -0.040193 -0.138490 0.246345 29.924200 -40.985400 0.000008 0.000006 4.823590 14.019700 -65.135800 -11.754300 -0.000006 -0.000006 -0.001899 -0.027441 -17.688900
0.000000 0.000000 0.000000 0.000000 0.000000 -0.000000 -1.648770 91.098800 -7.831570 88.630100 -2.073500 7.128030 15.735700 0.000005 -0.000001 87.853500 75.638900 -88.340300 8.984550 -0.406207 -0.000000 20.934100 -1.105200 -0.773110 16.377300 -0.000001 -0.000001 13.999500 -2.572150 2.041230 6.456720 -0.000001 -0.000000 -15.894700 -2.536510 2.492010 12.994200 -0.242716 4.980390 -89.235600 -2.612350 -73.683300 5.348090 -0.000007 -0.000001 -78.223200 -10.314800 -82.700600 24.328600 0.000019 0.000005 40.844900 -9.960880 -101.314000 22.291600 -0.000001 0.000005 14.423300 5.073430 5.716040 12.994500 -0.242716 -4.980390 90.213800 -1.013920 -78.093600 -5.348130 -0.000001 -0.000004 -73.393700 -9.895930 -78.952000 -24.328900 0.000322 -0.000009 21.716100 -7.415700 -107.956000 -22.291500 -0.000108 -0.000004 23.851700 5.135320 4.292040 -2.192480 -6.469440 -0.000000 -175.149000 -11.992000 -9.732730 39.081100 -0.000007 -0.000012 -0.093762 0.154079 31.322100 40.985400 -0.000006 -0.000013 0.366175 5.636890 -64.404400 11.754300 -0.000000 0.000003 -0.000247 -0.002212 -16.660500 -2.192510 6.469440 -0.000001 178.855000 21.393700 171.729000 -39.081100 -0.002282 -0.040193 -0.137578 0.244822 29.918000 -40.985400 0.000008 0.000006 4.820370 14.002400 -65.106700 -11.754300 -0.000006 -0.000006 -0.001919 -0.027704 -17.699600
0.000000 0.000000 0.000000 0.000000 0.000000 -0.000000 -1.642570 91.092800 -7.867110 88.648100 -2.059710 7.128730 15.735700 0.000005 -0.000001 87.867700 75.610800 -88.361300 8.984550 -0.406207 -0.000000 20.990600 -1.101180 -0.786935 16.377300 -0.000001 -0.000001 14.155300 -2.641340 2.087550 6.456720 -0.000001 -0.000000 -15.956100 -2.649860 2.464550 12.994200 -0.242716 4.980390 -89.237600 -2.597550 -73.635600 5.348090 -0.000007 -0.000001 -78.215900 -10.322100 -82.771100 24.328600 0.000019 0.000005 40.872400 -9.942310 -101.283000 22.291600 -0.000001 0.000005 14.429600 5.076100 5.656180 12.994500 -0.242716 -4.980390 90.217500 -1.027650 -78.050100 -5.348130 -0.000001 -0.000004 -73.379700 -9.912150 -79.002300 -24.328900 0.000322 -0.000009 21.701600 -7.419210 -107.976000 -22.291500 -0.000108 -0.000004 23.777300 5.136320 4.268290 -2.192480 -6.469440 -0.000000 -175.181000 -11.949900 -9.766560 39.081100 -0.000007 -0.000012 -0.092096 0.151227 31.341300 40.985400 -0.000006 -0.000013 0.371403 5.635110 -64.394100 11.754300 -0.000000 0.000003 -0.000240 -0.002155 -16.658400 -2.192510 6.469440 -0.000001 178.841000 21.394200 171.682000 -39.081100 -0.002282 -0.040193 -0.136391 0.242343 29.960400 -40.985400 0.000008 0.000006 4.823410 14.002500 -65.103800 -11.754300 -0.000006 -0.000006 -0.001951 -0.028102 -17.715800
